<?xml version="1.0" encoding="iso-8859-1"?>
<!-- Generator: Adobe Illustrator 18.1.1, SVG Export Plug-In . SVG Version: 6.00 Build 0)  -->
<svg version="1.1" id="Capa_1" xmlns="http://www.w3.org/2000/svg" xmlns:xlink="http://www.w3.org/1999/xlink" x="0px" y="0px"
	 viewBox="0 0 42.93 42.93" style="enable-background:new 0 0 42.93 42.93;" xml:space="preserve">
<g>
	<g>
		<g>
			<path style="fill:#010002;" d="M22.373,7.763c2.143,0,3.883-1.742,3.883-3.883c0-2.142-1.74-3.88-3.883-3.88
				c-2.142,0-3.878,1.738-3.878,3.88C18.495,6.02,20.231,7.763,22.373,7.763z"/>
			<path style="fill:#010002;" d="M24.254,22.514c-2.906-1.708-5.21-2.754-7.039-3.382L17.21,30.451l-1.243,5.968
				c-0.382,1.446,0.797,2.214,2.02,2.214c1.222,0,1.982-0.794,2.454-1.974l1.188-5.552v-8.342h0.993v17.971l0.015,0.013
				c0.02,1.204,0.994,2.181,2.201,2.181c1.213,0,2.2-0.99,2.2-2.205L27.035,24.1C26.17,23.62,25.261,23.104,24.254,22.514z"/>
			<path style="fill:#010002;" d="M7.748,5.158l6.964,7.152c3.527,0.4,7.646,1.925,12.322,4.575v-1.961l9.502-9.766
				c0.007,0,0.007-0.004,0.013-0.011c0.642-0.636,0.642-1.677,0-2.318c-0.639-0.638-1.674-0.634-2.312,0
				c-0.004,0.01-0.004,0.011-0.013,0.014l-6.127,6.175l-0.004,0.023V9.017h-11.9l-6.129-6.175c-0.004-0.002-0.007-0.004-0.007-0.013
				c-0.642-0.634-1.679-0.638-2.317,0c-0.641,0.641-0.641,1.682,0,2.318C7.746,5.154,7.748,5.158,7.748,5.158z M27.034,13.885
				l0.032-0.007l-0.032,0.146V13.885z"/>
			<path style="fill:#010002;" d="M37.724,18.514l-3.465,3.134c-1.524-0.733-3.654-1.863-6.606-3.599
				c-9.034-5.309-16.062-6.867-20.888-4.636c-3.409,1.577-4.792,4.708-5.068,6.309l4.771,0.832c0.002-0.019,0.4-1.852,2.332-2.745
				c1.855-0.861,6.45-1.428,16.4,4.417c7.05,4.143,10.683,5.666,12.826,5.666c1.174,0,1.903-0.457,2.501-1.192
				C41.467,25.551,42.193,23.453,37.724,18.514z"/>
		</g>
	</g>
</g>
<g>
</g>
<g>
</g>
<g>
</g>
<g>
</g>
<g>
</g>
<g>
</g>
<g>
</g>
<g>
</g>
<g>
</g>
<g>
</g>
<g>
</g>
<g>
</g>
<g>
</g>
<g>
</g>
<g>
</g>
</svg>
