<?xml version="1.0" encoding="iso-8859-1"?>
<!-- Generator: Adobe Illustrator 18.0.0, SVG Export Plug-In . SVG Version: 6.00 Build 0)  -->
<!DOCTYPE svg PUBLIC "-//W3C//DTD SVG 1.1//EN" "http://www.w3.org/Graphics/SVG/1.1/DTD/svg11.dtd">
<svg version="1.1" id="Capa_1" xmlns="http://www.w3.org/2000/svg" xmlns:xlink="http://www.w3.org/1999/xlink" x="0px" y="0px"
	 viewBox="0 0 484.174 484.174" style="enable-background:new 0 0 484.174 484.174;" xml:space="preserve">
<path d="M459.131,150.962c-6.441,0-12.262,2.503-16.696,6.497v-15.547c0-18.44-14.951-33.391-33.392-33.391
	c-18.44,0-33.391,14.951-33.391,33.391v75.139h-267.13v-75.139c0-18.44-14.952-33.391-33.392-33.391
	c-18.44,0-33.391,14.951-33.391,33.391v15.547c-4.436-3.994-10.255-6.497-16.695-6.497C11.21,150.962,0,162.171,0,176.006v132.17
	c0,13.835,11.21,25.044,25.045,25.044c6.44,0,12.26-2.503,16.695-6.498v15.539c0,18.44,14.951,33.392,33.391,33.392
	c18.44,0,33.392-14.951,33.392-33.392v-75.123h267.13v75.123c0,18.44,14.951,33.392,33.391,33.392
	c18.44,0,33.392-14.951,33.392-33.392v-15.539c4.435,3.994,10.256,6.498,16.696,6.498c13.833,0,25.043-11.21,25.043-25.044v-132.17
	C484.174,162.171,472.965,150.962,459.131,150.962z"/>
<g>
</g>
<g>
</g>
<g>
</g>
<g>
</g>
<g>
</g>
<g>
</g>
<g>
</g>
<g>
</g>
<g>
</g>
<g>
</g>
<g>
</g>
<g>
</g>
<g>
</g>
<g>
</g>
<g>
</g>
</svg>
