<?xml version="1.0" encoding="iso-8859-1"?>
<!-- Generator: Adobe Illustrator 16.0.0, SVG Export Plug-In . SVG Version: 6.00 Build 0)  -->
<!DOCTYPE svg PUBLIC "-//W3C//DTD SVG 1.1//EN" "http://www.w3.org/Graphics/SVG/1.1/DTD/svg11.dtd">
<svg version="1.1" id="Capa_1" xmlns="http://www.w3.org/2000/svg" xmlns:xlink="http://www.w3.org/1999/xlink" x="0px" y="0px"
	 width="124.296px" height="124.296px" viewBox="0 0 124.296 124.296" style="enable-background:new 0 0 124.296 124.296;"
	 xml:space="preserve">
<g>
	<g>
		<path d="M117.227,29.933h-61.62c-0.328,0-0.648,0.029-0.965,0.073c-0.401-0.027-0.802-0.042-1.202-0.039
			c-1.155,0.009-2.317,0.142-3.449,0.395c-5.308,1.186-10.639,5.26-10.584,11.688l0.278,35.875L5.961,78.038
			c-3.303,0.01-5.973,2.696-5.961,6c0.011,3.297,2.687,5.963,5.98,5.963c0.007,0,0.014,0,0.021,0l40.191-0.135
			c1.379,0.787,2.853,1.369,4.298,1.713c0,0,1.627,0.471,3.353,0.418c1.65-0.052,3.486-0.451,3.486-0.451l0.046-0.008
			c5.171-1.313,10.654-5.584,10.6-11.921L67.699,44.07h49.528c3.903,0,7.068-3.165,7.068-7.069
			C124.294,33.098,121.129,29.933,117.227,29.933z"/>
		<circle cx="84.786" cy="78.957" r="15.407"/>
	</g>
</g>
<g>
</g>
<g>
</g>
<g>
</g>
<g>
</g>
<g>
</g>
<g>
</g>
<g>
</g>
<g>
</g>
<g>
</g>
<g>
</g>
<g>
</g>
<g>
</g>
<g>
</g>
<g>
</g>
<g>
</g>
</svg>
